<svg viewBox="0 0 610 610" version="1.1" xmlns="http://www.w3.org/2000/svg"><path fill="#000000"  stroke="none" opacity="1" d="M 505.5 215 Q 510.9 213.1 510 216.5 L 515 233.5 L 521.5 248 L 529 238.5 L 538 221.5 L 542.5 217 L 546 218.5 L 530 250.5 L 531.5 250 L 547.5 245 L 572 232 L 573.5 229 Q 575.4 225.4 581.5 226 L 583 228.5 L 565.5 244 L 559.5 247 L 553.5 248 L 539.5 256 Q 538 252.5 536.5 255 L 525.5 258 L 519 262 L 510.5 275 Q 508.3 274.3 509 276.5 L 494 288 L 494 290 L 491 290 Q 492.1 292.7 489.5 292 L 485 295 L 482.5 299 L 474 303 Q 475.1 305.7 472.5 305 L 468.5 309 L 461 311 Q 462.1 313.7 459.5 313 L 450.5 323 L 442.5 326 L 434.5 332 L 420.5 339 L 407.5 343 L 398.5 348 L 387.5 350 L 379.5 354 L 361.5 360 L 354.5 361 L 339.5 367 L 334.5 367 L 330.5 369 Q 325 367.5 323.5 370 Q 312 368.5 304.5 371 L 301.5 370 L 300.5 371 L 289.5 371 L 288.5 370 L 275.5 370 L 274.5 369 L 263.5 369 L 262.5 368 L 252.5 368 L 251.5 367 L 249.5 367 L 236.5 365 L 231.5 363 L 223 363 Q 220.4 366.2 221 373.5 L 218 376.5 L 212 391.5 L 212 393.5 L 206 408.5 L 206 412 L 211.5 411 L 214.5 412 L 224.5 410 L 226.5 410 L 233.5 410 Q 235.3 406.2 242.5 408 L 243.5 409 L 253.5 409 L 255 410.5 L 253 415 L 238.5 419 Q 231.7 417.7 228.5 420 L 226.5 419 L 225.5 420 L 208.5 420 L 200.5 424 Q 198 423 199 418.5 L 197 416.5 L 197 411.5 L 198 410.5 L 199 398.5 L 205 389.5 L 212 373.5 L 213 366.5 L 216 362.5 L 215 359 L 200.5 356 L 194.5 353 L 180.5 344 L 143.5 326 L 135 318.5 L 132.5 315 L 100.5 292 Q 99 295.5 97.5 293 L 93.5 292 L 88.5 294 L 85.5 292 L 73.5 289 L 63.5 284 L 50.5 281 L 48.5 282 L 41 277.5 L 42.5 274 Q 48.8 275.8 50.5 273 L 81.5 282 L 84 281 Q 84.8 277.2 81.5 276 L 78 273.5 L 65 252.5 Q 65.5 249.5 69.5 250 L 73 252 Q 79.6 264.1 90.5 273 L 95.5 275 L 99 268.5 Q 97.8 258.3 102 253.5 L 102 244.5 L 104 241.5 Q 102.5 235.5 105.5 234 Q 109.3 233.3 110 235.5 Q 111 242.5 108 245.5 L 108 253.5 L 105 263.5 L 104 281.5 L 107.5 287 L 113 290.5 L 114.5 293 L 124.5 300 L 129 300 L 131.5 305 L 138.5 307 L 143 306 L 143 303.5 L 152 292 L 188 263.5 Q 187.3 261.3 189.5 262 L 202.5 251 L 223.5 241 L 232.5 235 L 277.5 219 L 301.5 216 L 314.5 219 L 330.5 220 L 351.5 226 L 364.5 227 L 370.5 229 L 373.5 232 L 377.5 233 L 380.5 236 L 403.5 247 L 406 249.5 Q 405.3 251.8 407.5 251 L 430.5 273 L 441 280.5 L 448 290 L 459 297.5 Q 458.3 299.8 460.5 299 L 464.5 301 Q 487.5 286.5 507 268.5 L 513 259.5 L 514 255.5 L 511 251.5 L 511 249.5 Q 509.9 238.6 506 230.5 L 506 226.5 L 504 224.5 L 504 216.5 L 505.5 215 Z M 318 229 L 312 232 L 308 231 L 297 234 L 291 234 L 289 236 L 287 235 L 283 238 L 272 239 L 267 243 L 253 247 L 248 251 Q 244 250 245 253 L 242 253 L 230 268 L 230 271 L 227 277 Q 229 283 226 285 Q 224 291 227 293 L 224 298 Q 225 302 223 304 L 225 313 L 233 331 L 243 341 Q 242 343 245 342 L 247 346 L 256 351 L 259 351 L 264 354 L 289 362 L 312 362 Q 313 359 320 361 L 350 351 L 361 345 L 371 335 L 371 333 L 371 331 L 377 321 L 384 299 L 384 278 L 381 274 L 381 271 L 378 269 Q 373 268 374 262 L 364 254 L 365 248 L 358 241 Q 354 240 355 243 L 353 243 L 346 237 L 344 237 L 342 233 L 333 229 Q 328 229 328 232 L 322 229 L 318 229 Z M 362 236 L 368 242 L 381 257 L 390 278 L 390 298 Q 387 301 388 308 L 385 313 L 385 316 L 380 329 L 373 341 L 365 348 L 362 352 L 365 352 L 382 345 L 392 343 L 406 338 L 410 335 L 421 332 L 442 320 L 450 317 L 458 309 L 458 307 Q 453 308 451 306 L 452 303 L 450 300 L 446 300 L 438 296 L 433 291 Q 434 286 432 287 L 428 283 L 407 264 L 400 257 L 372 240 L 362 236 Z M 233 251 L 226 254 L 219 255 L 208 260 L 183 276 L 181 280 L 179 280 L 161 294 L 148 308 L 150 312 Q 151 315 148 314 L 152 321 L 160 326 L 182 336 L 185 339 L 202 348 L 221 353 L 224 355 L 229 355 L 257 361 L 261 361 L 251 357 L 243 351 L 241 349 L 237 345 L 228 336 L 223 323 L 221 321 L 218 309 L 218 293 L 221 281 L 222 269 Q 225 260 231 256 Q 230 253 233 254 L 234 252 L 233 251 Z M 86 280 L 85 282 L 87 283 L 86 280 Z "/><path fill="#000000"  stroke="none" opacity="1" d="M 230.5 273 L 231 274.5 L 230 274.5 L 230.5 273 Z "/><path fill="#000000"  stroke="none" opacity="1" d="M 307.5 274 L 321.5 278 L 325 281.5 Q 324.3 283.8 326.5 283 L 329 287.5 L 331 300.5 Q 327.4 313.9 317.5 321 L 308.5 325 L 302.5 325 L 292.5 322 L 280 315 L 276 303.5 L 277 302.5 L 278 289.5 L 281.5 284 L 294.5 277 L 307.5 274 Z "/><path fill="#000000"  stroke="none" opacity="1" d="M 375 358 L 379 359.5 Q 378.3 361.8 380.5 361 L 391 373.5 L 396 386.5 L 408.5 405 L 417 397.5 Q 416.3 395.3 418.5 396 L 425 390.5 L 428.5 385 L 446.5 371 L 449.5 371 L 451 374.5 L 443 381.5 L 440.5 385 L 432 392.5 L 426.5 399 L 424 400.5 L 422 403.5 L 409.5 418 L 405 414.5 L 394 396.5 L 390 392.5 L 374 360.5 L 375 358 Z "/></svg>